# xmcd CD database file
#
# Track frame offsets:
#	150
#	16288
#	28075
#	45981
#	68215
#	80177
#	99423
#	112914
#	131503
#	158862
#	173461
#	187762
#	209072
#
# Disc length: 3410 seconds
#
# Revision: 0
# Processed by: cddbd v1.5.2PL0 Copyright (c) Steve Scherf et al.
# Submitted via: CDex 1.78
#
DISCID=a20d500d
DTITLE=Dr. Will's Gangsters Of Love - Movin'
DYEAR=2000
DGENRE=Blues
TTITLE0=Mardi gras day
TTITLE1=Trouble
TTITLE2=Shiny red jaguar
TTITLE3=Hoodoo Moon
TTITLE4=Violiet love
TTITLE5=Hooppin' and Howlin'
TTITLE6=Sweet tooth (It's alright)
TTITLE7=You Rastal you
TTITLE8=doctor's orders
TTITLE9=I'm gonna be a wheel
TTITLE10=Stormy weather
TTITLE11=Find me another
TTITLE12=Livon in sin
EXTD=YEAR: 2000
EXTT0=
EXTT1=
EXTT2=
EXTT3=
EXTT4=
EXTT5=
EXTT6=
EXTT7=
EXTT8=
EXTT9=
EXTT10=
EXTT11=
EXTT12=
PLAYORDER=
